<svg width="400" height="350" viewBox="0 0 400 350" xmlns="http://www.w3.org/2000/svg" xmlns:xlink="http://www.w3.org/1999/xlink"><svg id="ai" viewBox="-1 -1 50 50" width="50" height="50"><style>.aast0{fill:#7c848e}</style><g id="aaXMLID_3_"><g id="aaXMLID_70_"><path id="aaXMLID_71_" class="aast0" d="M7.8 8H42v24h2V6H7.8C7.4 4.8 6.3 4 5 4 3.3 4 2 5.3 2 7s1.3 3 3 3c1.3 0 2.4-.8 2.8-2zM43 38c-1.3 0-2.4.8-2.8 2H6V16H4v26h36.2c.4 1.2 1.5 2 2.8 2 1.7 0 3-1.3 3-3s-1.3-3-3-3zM30 20c0-3.3-2.7-6-6-6s-6 2.7-6 6 2.7 6 6 6 6-2.7 6-6zm-10 0c0-2.2 1.8-4 4-4s4 1.8 4 4-1.8 4-4 4-4-1.8-4-4zm-8 16h2c0-3 2.7-6 6-6h8c3 0 6 3 6 6h2c0-4-4-8-8-8h-8c-4.4 0-8 4-8 8z"/></g></g></svg><svg id="ai-actived" viewBox="-1 -1 50 50" width="50" height="50" x="100" y="250"><style>.abst0{fill:#00a4ff}</style><g id="abXMLID_3_"><g id="abXMLID_70_"><path id="abXMLID_71_" class="abst0" d="M7.8 8H42v24h2V6H7.8C7.4 4.8 6.3 4 5 4 3.3 4 2 5.3 2 7s1.3 3 3 3c1.3 0 2.4-.8 2.8-2zM43 38c-1.3 0-2.4.8-2.8 2H6V16H4v26h36.2c.4 1.2 1.5 2 2.8 2 1.7 0 3-1.3 3-3s-1.3-3-3-3zM30 20c0-3.3-2.7-6-6-6s-6 2.7-6 6 2.7 6 6 6 6-2.7 6-6zm-10 0c0-2.2 1.8-4 4-4s4 1.8 4 4-1.8 4-4 4-4-1.8-4-4zm-8 16h2c0-3 2.7-6 6-6h8c3 0 6 3 6 6h2c0-4-4-8-8-8h-8c-4.4 0-8 4-8 8z"/></g></g></svg><svg id="all" viewBox="-1 -1 50 50" width="50" height="50" y="50"><style>.acst0{opacity:.2}.acst1,.acst2{fill-rule:evenodd;clip-rule:evenodd;fill:#667080}.acst2{fill:#7c848e}</style><g id="acXMLID_2_" class="acst0"><g id="acXMLID_57_"><path id="acXMLID_58_" class="acst1" d="M24 0C10.7 0 0 10.7 0 24s10.7 24 24 24 24-10.7 24-24S37.3 0 24 0zm0 46.4c-12.4 0-22.4-10-22.4-22.4 0-12.4 10-22.4 22.4-22.4s22.4 10 22.4 22.4c0 12.4-10 22.4-22.4 22.4z"/></g></g><g id="acXMLID_3_"><g id="acXMLID_53_"><path id="acXMLID_54_" class="acst2" d="M14 21.5c-1.4 0-2.5 1.1-2.5 2.5s1.1 2.5 2.5 2.5 2.5-1.1 2.5-2.5-1.1-2.5-2.5-2.5zm10 0c-1.4 0-2.5 1.1-2.5 2.5s1.1 2.5 2.5 2.5 2.5-1.1 2.5-2.5-1.1-2.5-2.5-2.5zm10 0c-1.4 0-2.5 1.1-2.5 2.5s1.1 2.5 2.5 2.5 2.5-1.1 2.5-2.5-1.1-2.5-2.5-2.5z"/></g></g></svg><svg id="all-actived" viewBox="-1 -1 50 50" width="50" height="50" x="50" y="50"><style>.adst0{fill-rule:evenodd;clip-rule:evenodd;fill:#00a4ff}</style><g id="adXMLID_2_"><g id="adXMLID_47_"><path id="adXMLID_48_" class="adst0" d="M24 0C10.7 0 0 10.7 0 24s10.7 24 24 24 24-10.7 24-24S37.3 0 24 0zm0 46.4c-12.4 0-22.4-10-22.4-22.4 0-12.4 10-22.4 22.4-22.4s22.4 10 22.4 22.4c0 12.4-10 22.4-22.4 22.4z"/></g></g><g id="adXMLID_3_"><g id="adXMLID_53_"><path id="adXMLID_54_" class="adst0" d="M14 21.5c-1.4 0-2.5 1.1-2.5 2.5s1.1 2.5 2.5 2.5 2.5-1.1 2.5-2.5-1.1-2.5-2.5-2.5zm10 0c-1.4 0-2.5 1.1-2.5 2.5s1.1 2.5 2.5 2.5 2.5-1.1 2.5-2.5-1.1-2.5-2.5-2.5zm10 0c-1.4 0-2.5 1.1-2.5 2.5s1.1 2.5 2.5 2.5 2.5-1.1 2.5-2.5-1.1-2.5-2.5-2.5z"/></g></g></svg><svg id="arrow-right" data-name="图层 1" width="18" height="18" viewBox="-1 -1 18 18" x="350" y="306"><defs><style>.aecls-1{opacity:0}.aecls-2,.aecls-3{fill:#999}.aecls-3{stroke:#979797}</style></defs><title>arrow-right</title><g id="aeSymbols"><g id="ae箭头_PC" data-name="箭头 PC"><g id="aeGroup"><g id="aeRectangle-5" class="aecls-1"><path id="aepath-1" class="aecls-2" d="M0 0h16v16H0z"/><path class="aecls-3" d="M.5.5h15v15H.5z"/></g><path id="aeCombined-Shape-Copy-48" class="aecls-2" d="M9.196 8.5L5 4.381 6.402 3 12 8.5 6.402 14 5 12.619 9.196 8.5z"/></g></g></g></svg><svg version="undefined" width="18" height="18" viewBox="-1 -1 18 18" id="arrow-right-#00a4ff" x="368" y="288"><defs><style>.afcls-1{opacity:0}.afcls-2,.afcls-3{fill:#00a4ff}.afcls-3{stroke:#979797}</style></defs><g data-name="箭头 PC"><g class="afcls-1"><path class="afcls-2" d="M0 0h16v16H0z"/><path class="afcls-3" d="M.5.5h15v15H.5z"/></g><path class="afcls-2" d="M9.196 8.5L5 4.381 6.402 3 12 8.5 6.402 14 5 12.619 9.196 8.5z"/></g></svg><svg id="ask" data-name="图层 1" width="34" height="34" viewBox="-1 -1 34 34" x="350" y="218"><defs><style>.agcls-1{fill:#fff}.agcls-2{opacity:0}.agcls-3{fill:#d8d8d8}.agcls-4{fill:none;stroke:#979797}.agcls-5{fill:#00a4ff}.agcls-6{mask:url(#agmask)}</style><mask id="agmask" x="1" y="1" width="30" height="31" maskUnits="userSpaceOnUse"><g id="agmask-3"><path id="agpath-2" class="agcls-1" d="M1 32h30V1H1v31z"/></g></mask></defs><title>ask</title><g id="agSymbols"><g id="ag问答"><g id="agGroup-4"><g id="agRectangle-31" class="agcls-2"><path id="agpath-1" class="agcls-3" d="M0 0h32v32H0z"/><path class="agcls-4" d="M.5.5h31v31H.5z"/></g><g id="agPage-1"><path id="agFill-1" class="agcls-5" d="M1 1v22h4v6l6-6h2v4h8l6 5v-5h4V12h-4V1zm2 2h22v18H10l-3 3v-3H3zm12 20h12v-9h2v11h-4v3l-3-3h-7z"/><g id="agGroup-6"><path id="agFill-2" class="agcls-5" d="M17.889 9.041A3.993 3.993 0 0 0 10.142 9h2.136a1.994 1.994 0 1 1 2.922 2.59.938.938 0 0 1-.438.166h-.036A2 2 0 0 0 13 13.741V15h2v-1.142a4 4 0 0 0 2.889-4.817"/><g class="agcls-6"><path id="agFill-4" class="agcls-5" d="M13 18h2v-2h-2v2z"/></g></g></g></g></g></g></svg><svg id="big-data" viewBox="-1 -1 50 50" width="50" height="50" x="50" y="100"><style>.ahst0{fill:#7c848e}</style><g id="ahXMLID_2_"><g id="ahXMLID_87_"><path id="ahXMLID_88_" class="ahst0" d="M7.8 8H42v24h2V6H7.8C7.4 4.8 6.3 4 5 4 3.3 4 2 5.3 2 7s1.3 3 3 3c1.3 0 2.4-.8 2.8-2zM43 38c-1.3 0-2.4.8-2.8 2H6V16H4v26h36.2c.4 1.2 1.5 2 2.8 2 1.7 0 3-1.3 3-3s-1.3-3-3-3zM14 25v10h-4v2h28v-2h-2V18h-6v17h-2V14h-6v21h-2V25h-6zm18-5h2v15h-2V20zm-8-4h2v19h-2V16zm-6 19h-2v-8h2v8z"/></g></g></svg><svg id="big-data-actived" viewBox="-1 -1 50 50" width="50" height="50" x="100" y="100"><style>.aist0{fill:#00a4ff}</style><g id="aiXMLID_2_"><g id="aiXMLID_87_"><path id="aiXMLID_88_" class="aist0" d="M7.8 8H42v24h2V6H7.8C7.4 4.8 6.3 4 5 4 3.3 4 2 5.3 2 7s1.3 3 3 3c1.3 0 2.4-.8 2.8-2zM43 38c-1.3 0-2.4.8-2.8 2H6V16H4v26h36.2c.4 1.2 1.5 2 2.8 2 1.7 0 3-1.3 3-3s-1.3-3-3-3zM14 25v10h-4v2h28v-2h-2V18h-6v17h-2V14h-6v21h-2V25h-6zm18-5h2v15h-2V20zm-8-4h2v19h-2V16zm-6 19h-2v-8h2v8z"/></g></g></svg><svg id="cdn" viewBox="-1 -1 50 50" width="50" height="50" x="150"><style>.ajst0{fill:#7c848e}</style><path class="ajst0" d="M37 32V16L24 9v1.6L35 17v13.9l2 1.1zm7-13.5V35L24 46 4 35V13L24 2l20 11 1.7-1.2L24 0 2 12v24l22 12 22-12V17.5l-2 1zM31 36V20l-13-7v1.6L29 21v13.8l2 1.2zm-19-5l13 8V23l-13-7v15zm2-12l9 5v12l-9-6V19z"/></svg><svg id="cdn-actived" viewBox="-1 -1 50 50" width="50" height="50" x="150" y="50"><style>.akst0{fill:#00a4ff}</style><path class="akst0" d="M37 32V16L24 9v1.6L35 17v13.9l2 1.1zm7-13.5V35L24 46 4 35V13L24 2l20 11 1.7-1.2L24 0 2 12v24l22 12 22-12V17.5l-2 1zM31 36V20l-13-7v1.6L29 21v13.8l2 1.2zm-19-5l13 8V23l-13-7v15zm2-12l9 5v12l-9-6V19z"/></svg><svg id="column" data-name="图层 1" width="34" height="34" viewBox="-1 -1 34 34" x="350" y="150"><defs><style>.alcls-1{fill:#fff}.alcls-2{opacity:0}.alcls-3{fill:#d8d8d8}.alcls-4{fill:none;stroke:#979797}.alcls-5{fill:#00a4ff}.alcls-6{mask:url(#almask)}</style><mask id="almask" x="1" y="1" width="30" height="30" maskUnits="userSpaceOnUse"><g id="almask-3"><path id="alpath-2" class="alcls-1" d="M1 31h30V1H1v30z"/></g></mask></defs><title>column</title><g id="alSymbols"><g id="al专栏"><g id="alGroup-13"><g id="alRectangle-31" class="alcls-2"><path id="alpath-1" class="alcls-3" d="M0 0h32v32H0z"/><path class="alcls-4" d="M.5.5h31v31H.5z"/></g><g id="alPage-1"><path id="alFill-1" class="alcls-5" d="M29 28a1 1 0 0 1-2 0V15h2zm-4 1H3V3h22v25a2.962 2.962 0 0 0 .184 1zm2-16V1H1v30h27a3 3 0 0 0 3-3V13z"/><g class="alcls-6"><path id="alFill-3" class="alcls-5" d="M6 10h6V8H6v2z"/></g><g class="alcls-6"><path id="alFill-5" class="alcls-5" d="M6 15h16v-2H6v2z"/></g><g class="alcls-6"><path id="alFill-6" class="alcls-5" d="M6 20h16v-2H6v2z"/></g><g class="alcls-6"><path id="alFill-7" class="alcls-5" d="M6 25h16v-2H6v2z"/></g></g></g></g></g></svg><svg id="communicate" viewBox="11 -13 50 50" width="50" height="50" y="150"><style>.amst0{fill:#7c848e}</style><path class="amst0" d="M44 3h-2v4H28l4 4V9h12V3zm-5 23v-2h-6v2h6zm13 2v-38H20v44h32v-2H22V-8h28v36h2zM40-5v2H28v6h2v-4h14l-4-4zm-3 7v2h2V2h-2zm-4 0v2h2V2h-2z"/></svg><svg id="communicate-actived" viewBox="11 -13 50 50" width="50" height="50" x="50" y="150"><style>.anst0{fill:#00a4ff}</style><path class="anst0" d="M39 26v-2h-6v2h6zm5-23h-2v4H28l4 4V9h12V3zm8 25v-38H20v44h32v-2H22V-8h28v36h2zM40-5v2H28v6h2v-4h14l-4-4zm-3 7v2h2V2h-2zm-4 0v2h2V2h-2z"/></svg><svg id="compute" viewBox="-1 -1 50 50" width="50" height="50" x="100" y="150"><style>.aost0{fill:#7c848e}</style><g id="aoXMLID_2_"><g id="aoXMLID_55_"><path id="aoXMLID_56_" class="aost0" d="M24 45C12.4 45 3 35.6 3 24S12.4 3 24 3c10.6 0 19.3 7.8 20.8 18h2C45.3 9.7 35.7 1 24 1 11.3 1 1 11.3 1 24s10.3 23 23 23c11.7 0 21.3-8.7 22.8-20h-2C43.3 37.2 34.6 45 24 45zm11-27l-11-6-11 6v12l4.1 2.2c.1-.7.4-1.2.9-1.7l-3-1.6V21l9 5 9-5v7.9l-8 4.4c-.3-.2-.6-.3-1-.3-1.1 0-2 .9-2 2s.9 2 2 2 2-.9 2-2v-.1l9-4.9V18zm-11 5.7l-8.7-4.8 8.7-4.7 8.7 4.7-8.7 4.8z"/></g></g></svg><svg id="compute-actived" viewBox="-1 -1 50 50" width="50" height="50" x="150" y="150"><style>.apst0{fill:#00a4ff}</style><g id="apXMLID_2_"><g id="apXMLID_55_"><path id="apXMLID_56_" class="apst0" d="M24 45C12.4 45 3 35.6 3 24S12.4 3 24 3c10.6 0 19.3 7.8 20.8 18h2C45.3 9.7 35.7 1 24 1 11.3 1 1 11.3 1 24s10.3 23 23 23c11.7 0 21.3-8.7 22.8-20h-2C43.3 37.2 34.6 45 24 45zm11-27l-11-6-11 6v12l4.1 2.2c.1-.7.4-1.2.9-1.7l-3-1.6V21l9 5 9-5v7.9l-8 4.4c-.3-.2-.6-.3-1-.3-1.1 0-2 .9-2 2s.9 2 2 2 2-.9 2-2v-.1l9-4.9V18zm-11 5.7l-8.7-4.8 8.7-4.7 8.7 4.7-8.7 4.8z"/></g></g></svg><svg width="50" height="50" viewBox="-1 -1 50 50" id="data-process" x="200"><path fill="#7C848E" d="M6.037 40.016V15.923H3.959v26.093h40.082v-2H6.037zm35.893-8.021h2.078V5.984H3.959v2.01H41.93v24.001zm-9.984-15.637v2.612H17.36c-2.089 0-3.45 1.324-3.45 3.413 0 2.09 1.361 3.606 3.45 3.606h4.575V23.97H17.36c-.783 0-1.432-.805-1.432-1.588s.648-1.395 1.432-1.395h19.593l-5.007-4.629zm-1.523 12.62H10.83l5.13 4.632v-2.614h14.463c2.089 0 3.544-1.296 3.544-3.388 0-2.088-1.455-3.636-3.544-3.636h-4.481v2.019h4.481c.781 0 1.555.835 1.555 1.617 0 .784-.774 1.37-1.555 1.37z"/></svg><svg width="50" height="50" viewBox="-1 -1 50 50" id="data-process-actived" x="200" y="50"><path fill="#00A4FF" d="M6.037 40.016V15.923H3.959v26.093h40.082v-2H6.037zm35.893-8.021h2.078V5.984H3.959v2.01H41.93v24.001zm-9.985-15.637v2.612H17.36c-2.089 0-3.45 1.323-3.45 3.412 0 2.091 1.361 3.606 3.45 3.606h4.575v-2.019H17.36c-.783 0-1.432-.806-1.432-1.589 0-.782.648-1.395 1.432-1.395h19.593l-5.008-4.627zm-1.522 12.621H10.83l5.13 4.631v-2.613h14.463c2.089 0 3.544-1.296 3.544-3.389 0-2.088-1.455-3.635-3.544-3.635h-4.481v2.019h4.481c.781 0 1.556.835 1.556 1.616 0 .785-.775 1.371-1.556 1.371z"/></svg><svg id="database" viewBox="-1 -1 50 50" width="50" height="50" x="200" y="100"><style>.asst0{fill:#7c848e}</style><path class="asst0" d="M19.6 31.9c.7-.7 1.5-1.3 2.4-1.9-10.4 0-17-4-17-6V14c3.1 2.6 9.5 5 17 5 7.4 0 13.9-2.4 17-5v8.1c.7.4 1.4.8 2 1.3V11c0-4.4-8.5-8-19-8C12.3 3 4.4 5.9 3.2 9.8L3 11v26c0 3.6 7 6.4 16.1 6.9-.5-.7-1-1.4-1.3-2.1C9.9 40.9 5 37.7 5 36v-9c2.8 2.3 8.1 4.5 14.6 4.9zM22 5c10.4 0 17 3.6 17 6-.4 2.4-6.9 6-17 6-10.4 0-17-3.6-17-6s6.6-6 17-6zm19 27.7v-.2c0-4.1-3.4-7.4-7.5-7.4S26 28.4 26 32.5v.2c-2.6.6-5 2.5-5 5.3 0 3.3 3.7 6 7 6h12c3 0 6-2.7 6-6 0-2.8-2.4-4.6-5-5.3zM40 42H28c-2.2 0-5-1.8-5-4s2.3-3.5 4.5-3.5c.3 0 .6.1.9.1-.2-.6-.4-1.3-.4-2 0-3 2.5-5.4 5.5-5.4s5.5 2.4 5.5 5.4c0 .7-.1 1.4-.4 2.1.3-.1.6-.1.9-.1 2.2 0 4.5 1.3 4.5 3.5 0 2.1-1.8 3.9-4 3.9z"/></svg><svg id="database-actived" viewBox="-1 -1 50 50" width="50" height="50" x="200" y="150"><style>.atst0{fill:#00a4ff}</style><path class="atst0" d="M19.6 31.9c.7-.7 1.5-1.3 2.4-1.9-10.4 0-17-4-17-6V14c3.1 2.6 9.5 5 17 5 7.4 0 13.9-2.4 17-5v8.1c.7.4 1.4.8 2 1.3V11c0-4.4-8.5-8-19-8C12.3 3 4.4 5.9 3.2 9.8L3 11v26c0 3.6 7 6.4 16.1 6.9-.5-.7-1-1.4-1.3-2.1C9.9 40.9 5 37.7 5 36v-9c2.8 2.3 8.1 4.5 14.6 4.9zM22 5c10.4 0 17 3.6 17 6-.4 2.4-6.9 6-17 6-10.4 0-17-3.6-17-6s6.6-6 17-6zm19 27.7v-.2c0-4.1-3.4-7.4-7.5-7.4S26 28.4 26 32.5v.2c-2.6.6-5 2.5-5 5.3 0 3.3 3.7 6 7 6h12c3 0 6-2.7 6-6 0-2.8-2.4-4.6-5-5.3zM40 42H28c-2.2 0-5-1.8-5-4s2.3-3.5 4.5-3.5c.3 0 .6.1.9.1-.2-.6-.4-1.3-.4-2 0-3 2.5-5.4 5.5-5.4s5.5 2.4 5.5 5.4c0 .7-.1 1.4-.4 2.1.3-.1.6-.1.9-.1 2.2 0 4.5 1.3 4.5 3.5 0 2.1-1.8 3.9-4 3.9z"/></svg><svg id="developer" viewBox="11 -13 50 50" width="50" height="50" y="200"><style>.aust0{fill:#7c848e}</style><path class="aust0" d="M58 24V-6H14v36h44v-2H16V4h40v20h2zM16 2v-6h40v6H16zm19.2 21l3.6-13.5-2-.5-3.6 13.5 2 .5zm7.8-1.3l5.7-5.7-5.7-5.7-1.4 1.4 4.2 4.2-4.2 4.2 1.4 1.6zM29 10.3L23.3 16l5.7 5.7 1.4-1.4-4.2-4.3 4.2-4.2-1.4-1.5z"/></svg><svg id="developer-actived" viewBox="11 -13 50 50" width="50" height="50" x="50" y="200"><style>.avst0{fill:#00a4ff}</style><path class="avst0" d="M58 24V-6H14v36h44v-2H16V4h40v20h2zM16 2v-6h40v6H16zm19.2 21l3.6-13.5-2-.5-3.6 13.5 2 .5zm7.8-1.3l5.7-5.7-5.7-5.7-1.4 1.4 4.2 4.2-4.2 4.2 1.4 1.6zM29 10.3L23.3 16l5.7 5.7 1.4-1.4-4.2-4.3 4.2-4.2-1.4-1.5z"/></svg><svg id="domain" viewBox="-1 -1 50 50" width="50" height="50" x="100" y="200"><style>.awst0{fill:#7c848e}</style><g id="awXMLID_2_"><g id="awXMLID_118_"><path id="awXMLID_119_" class="awst0" d="M46 34V6H2v36h44v-2H4V16h40v18h2zM4 14V8h40v6H4zm35 18v-6c0-1.1-.9-2-2-2h-6c-1.1 0-2 .9-2 2v6h2v-6h2v6h2v-6h2v6h2zm-12-6c0-1.1-.9-2-2-2h-2c-1.1 0-2 .9-2 2v4c0 1.1.9 2 2 2h2c1.1 0 2-.9 2-2v-4zm-2 4h-2v-4h2v4zm-6-4v-2h-4c-1.1 0-2 .9-2 2v4c0 1.1.9 2 2 2h4v-2h-4v-4h4zm-8 6v-2H9v2h2z"/></g></g></svg><svg id="domain-actived" viewBox="-1 -1 50 50" width="50" height="50" x="150" y="200"><style>.axst0{fill:#00a4ff}</style><g id="axXMLID_2_"><g id="axXMLID_118_"><path id="axXMLID_119_" class="axst0" d="M11 32v-2H9v2h2zm35 2V6H2v36h44v-2H4V16h40v18h2zM4 14V8h40v6H4zm35 18v-6c0-1.1-.9-2-2-2h-6c-1.1 0-2 .9-2 2v6h2v-6h2v6h2v-6h2v6h2zm-20-6v-2h-4c-1.1 0-2 .9-2 2v4c0 1.1.9 2 2 2h4v-2h-4v-4h4zm8 0c0-1.1-.9-2-2-2h-2c-1.1 0-2 .9-2 2v4c0 1.1.9 2 2 2h2c1.1 0 2-.9 2-2v-4zm-2 4h-2v-4h2v4z"/></g></g></svg><svg id="financial-service" width="50" height="50" viewBox="-1 -1 50 50" x="200" y="200"><style>.ayst0{fill:#7c848e}</style><path id="ayXMLID_12_" class="ayst0" d="M2 6v2h42v28h2V6z"/><path id="ayXMLID_11_" class="ayst0" d="M4 12H2v30h44v-2H4z"/><g id="ayXMLID_10_"><g id="ayXMLID_50_"><g id="ayXMLID_9_"><path id="ayXMLID_30_" class="ayst0" d="M17 21h14v2H17z"/></g></g><g id="ayXMLID_6_"><g id="ayXMLID_7_"><path id="ayXMLID_19_" class="ayst0" d="M17 26h14v2H17z"/></g></g><g id="ayXMLID_44_"><g id="ayXMLID_4_"><path id="ayXMLID_31_" class="ayst0" d="M23 22h2v11h-2z"/></g></g><g id="ayXMLID_8_"><g id="ayXMLID_2_"><path id="ayXMLID_18_" transform="rotate(45.001 21.06 18.899)" class="ayst0" d="M16.323 18.022h9.473v1.753h-9.473z"/></g><g id="ayXMLID_5_"><path id="ayXMLID_17_" transform="rotate(45.001 27.197 18.899)" class="ayst0" d="M26.32 14.162h1.753v9.473H26.32z"/></g></g></g></svg><svg id="financial-service-actived" width="50" height="50" viewBox="-1 -1 50 50" x="250"><style>.azst0{fill:#00a4ff}</style><path id="azXMLID_12_" class="azst0" d="M2 6v2h42v28h2V6z"/><path id="azXMLID_11_" class="azst0" d="M4 12H2v30h44v-2H4z"/><g id="azXMLID_10_"><g id="azXMLID_50_"><g id="azXMLID_9_"><path id="azXMLID_30_" class="azst0" d="M17 21h14v2H17z"/></g></g><g id="azXMLID_6_"><g id="azXMLID_7_"><path id="azXMLID_19_" class="azst0" d="M17 26h14v2H17z"/></g></g><g id="azXMLID_44_"><g id="azXMLID_4_"><path id="azXMLID_31_" class="azst0" d="M23 22h2v11h-2z"/></g></g><g id="azXMLID_8_"><g id="azXMLID_2_"><path id="azXMLID_18_" transform="rotate(45.001 21.06 18.899)" class="azst0" d="M16.3 18h9.5v1.8h-9.5z"/></g><g id="azXMLID_5_"><path id="azXMLID_17_" transform="rotate(45.001 27.197 18.899)" class="azst0" d="M26.3 14.2h1.8v9.5h-1.8z"/></g></g></g></svg><svg id="game" viewBox="11 -13 50 50" width="50" height="50" x="250" y="50"><style>.bast0{fill:#7c848e}</style><path class="bast0" d="M14-6v2h42v28h2V-6H14zm2 6h-2v30h44v-2H16V0zm12 6v6h-6v2h6v6h2v-6h6v-2h-6V6h-2zm14 6v2h2v-2h-2zm6 0v2h2v-2h-2z"/></svg><svg id="game-actived" viewBox="11 -13 50 50" width="50" height="50" x="250" y="100"><style>.bbst0{fill:#00a4ff}</style><path class="bbst0" d="M14-6v2h42v28h2V-6H14zm2 6h-2v30h44v-2H16V0zm12 6v6h-6v2h6v6h2v-6h6v-2h-6V6h-2zm14 6v2h2v-2h-2zm6 0v2h2v-2h-2z"/></svg><svg id="icon-dialog" data-name="图层 1" width="18" height="18" viewBox="-1 -1 18 18" x="350" y="270"><defs><style>.bccls-1{fill:#888}</style></defs><title>icon</title><path class="bccls-1" d="M13 1H3a2 2 0 0 0-2 2v7a2 2 0 0 0 2 2h4v3l4-3h2a2 2 0 0 0 2-2V3a2 2 0 0 0-2-2zm1 9a1 1 0 0 1-1 1h-2.3l-.25.17L8 13.13V11H3a1 1 0 0 1-1-1V3a1 1 0 0 1 1-1h10a1 1 0 0 1 1 1z"/></svg><svg width="18" height="18" viewBox="-1 -1 18 18" id="icon-level" x="368" y="252"><title>难度</title><defs><path d="M1 9h1v6H1V9zm6-4h1v10H7V5zm6-4h1v14h-1V1z" id="bda"/></defs><g fill="none" fill-rule="evenodd"><use fill="#D8D8D8" xlink:href="#bda"/><path stroke="#979797" d="M1.5 12v3l.5-.5H1l.5.5v-3zm0 0V9l-.5.5h1L1.5 9v3zm6-2v5l.5-.5H7l.5.5v-5zm0 0V5l-.5.5h1L7.5 5v5zm6-2v7l.5-.5h-1l.5.5V8zm0 0V1l-.5.5h1l-.5-.5v7z"/></g></svg><svg data-name="图层 1" width="18" height="18" viewBox="-1 -1 18 18" id="icon-step" x="350" y="252"><title>icon-step</title><g data-name="箭头 PC-Copy"><path fill="#d8d8d8" d="M6 2h9v1H6z"/><path fill="none" stroke="#979797" d="M6.5 2.5h8v1h-8zm-4-1a1 1 0 0 1 1 1 1 1 0 0 1-1 1 1 1 0 0 1-1-1 1 1 0 0 1 1-1zm0 5a1 1 0 0 1 1 1 1 1 0 0 1-1 1 1 1 0 0 1-1-1 1 1 0 0 1 1-1zm0 5a1 1 0 0 1 1 1 1 1 0 0 1-1 1 1 1 0 0 1-1-1 1 1 0 0 1 1-1z"/><path fill="#d8d8d8" d="M6 7h9v1H6z"/><path fill="none" stroke="#979797" d="M6.5 7.5h8v1h-8z"/><path fill="#d8d8d8" d="M6 12h9v1H6z"/><path fill="none" stroke="#979797" d="M6.5 12.5h8v1h-8z"/></g></svg><svg width="18" height="18" viewBox="-1 -1 18 18" id="icon-time" x="350" y="288"><title>箭头_PC Copy 2</title><g fill="#888" fill-rule="evenodd"><path d="M7 13A6 6 0 1 1 7 1a6 6 0 0 1 0 12M7 0a7 7 0 1 0 0 14A7 7 0 0 0 7 0" transform="translate(1 1)"/><path d="M7 3H6v5l2.828 2.536.708-.708L7 7.293z" transform="translate(1 1)"/></g></svg><svg width="18" height="18" viewBox="-1 -1 18 18" id="icon-user" x="368" y="306"><title>箭头_PC Copy 3</title><path d="M7 1c1.654 0 3 1.346 3 3S8.654 7 7 7 4 5.654 4 4s1.346-3 3-3m0 7a4 4 0 1 0 0-8 4 4 0 0 0 0 8m6 5H1v-1c0-.705 2.278-2 6-2s6 1.295 6 2v1zM7 9c-3.866 0-7 1.343-7 3v2h14v-2c0-1.657-3.134-3-7-3z" transform="translate(1 1)" fill="#888" fill-rule="evenodd"/></svg><svg id="icon-view" width="18" height="18" viewBox="-1 -1 18 18" x="368" y="270"><style>.bhst0{fill-rule:evenodd;clip-rule:evenodd;fill:#888}</style><path class="bhst0" d="M8 2C4.4 2 1.3 4.5 0 8c1.3 3.5 4.4 6 8 6s6.7-2.5 8-6c-1.3-3.5-4.4-6-8-6m0 11c-3 0-5.7-2-6.9-5C2.3 4.9 5 3 8 3s5.7 2 6.9 5c-1.2 3.1-3.9 5-6.9 5m0-8C6.3 5 5 6.3 5 8s1.3 3 3 3 3-1.3 3-3-1.3-3-3-3m0 5c-1.1 0-2-.9-2-2s.9-2 2-2 2 .9 2 2-.9 2-2 2"/></svg><svg id="iot-hub" width="50" height="50" viewBox="-1 -1 50 50" x="200" y="250"><style>.bist0{fill:#7c848e}</style><g id="biakXMLID_2_"><g id="biakXMLID_55_"><path id="biakXMLID_56_" class="bist0" d="M24.1 45c-11.6 0-21-9.4-21-21s9.4-21 21-21c10.6 0 19.3 7.8 20.8 18h2C45.4 9.7 35.8 1 24.1 1c-12.7 0-23 10.3-23 23s10.3 23 23 23c11.7 0 21.3-8.7 22.8-20h-2c-1.5 10.2-10.2 18-20.8 18z"/></g></g><path class="bist0" d="M28.9 35.3L17.6 24l1.4-1.4 9.9 9.9 8.5-8.5-8.5-8.5-3.9 3.9-1.4-1.4 5.3-5.3L40.2 24z"/><path class="bist0" d="M19.1 12.7L30.4 24 29 25.4l-9.9-9.9-8.5 8.5 8.5 8.5 3.9-3.9 1.4 1.4-5.3 5.3L7.8 24z"/></svg><svg id="iot-hub-actived" width="50" height="50" viewBox="-1 -1 50 50" x="250" y="250"><style>.bjst0{fill:#00a4ff}</style><g id="bjakXMLID_2_"><g id="bjakXMLID_55_"><path id="bjakXMLID_56_" class="bjst0" d="M24.1 45c-11.6 0-21-9.4-21-21s9.4-21 21-21c10.6 0 19.3 7.8 20.8 18h2C45.4 9.7 35.8 1 24.1 1c-12.7 0-23 10.3-23 23s10.3 23 23 23c11.7 0 21.3-8.7 22.8-20h-2c-1.5 10.2-10.2 18-20.8 18z"/></g></g><path class="bjst0" d="M28.9 35.3L17.6 24l1.4-1.4 9.9 9.9 8.5-8.5-8.5-8.5-3.9 3.9-1.4-1.4 5.3-5.3L40.2 24z"/><path class="bjst0" d="M19.1 12.7L30.4 24 29 25.4l-9.9-9.9-8.5 8.5 8.5 8.5 3.9-3.9 1.4 1.4-5.3 5.3L7.8 24z"/></svg><svg id="lab" data-name="图层 1" width="34" height="34" viewBox="-1 -1 34 34" x="350" y="184"><defs><style>.bkcls-1{opacity:0}.bkcls-2{fill:#d8d8d8}.bkcls-3{fill:none;stroke:#979797}.bkcls-4{fill:#00a4ff}</style></defs><title>lab</title><g id="bkSymbols"><g id="bk实验室"><g id="bkGroup-12"><g id="bkRectangle-31" class="bkcls-1"><path id="bkpath-1" class="bkcls-2" d="M0 0h32v32H0z"/><path class="bkcls-3" d="M.5.5h31v31H.5z"/></g><g id="bkPage-1"><path id="bkFill-1" class="bkcls-4" d="M6 9h19V7H6v2z"/><path id="bkFill-2" class="bkcls-4" d="M6 15h19v-2H6v2z"/><path id="bkFill-3" class="bkcls-4" d="M6 21h4v-2H6v2z"/><g id="bkGroup-8"><path id="bkFill-4" class="bkcls-4" d="M28 29a1 1 0 0 1 0-2 .81.81 0 0 1 .1.02.986.986 0 0 1 .635.311c.02.022.03.049.048.072A.878.878 0 0 1 29 28a1 1 0 0 1-1 1zm-8.382-.833a1.959 1.959 0 0 1-.291.319c-.02.018-.041.034-.063.052a2.025 2.025 0 0 1-.287.2l-.1.056a1.924 1.924 0 0 1-.307.117c-.04.012-.077.027-.117.037A2.032 2.032 0 0 1 18 29a2 2 0 1 1 1.761-2.93l.047.086a1.964 1.964 0 0 1-.19 2.011zM28 25a2.994 2.994 0 0 0-2.706 1.724l-3.356-.335a3.966 3.966 0 0 0-1.038-2.136l2.038-3.26c.022 0 .043.007.066.007a2 2 0 1 0-1.83-2.8l-5.566.618a2 2 0 1 0 .222 1.982l5.227-.581-1.863 2.981A3.934 3.934 0 0 0 18 23a4 4 0 1 0 3.741 5.379l3.354.336A3 3 0 1 0 28 25z"/><path id="bkFill-6" class="bkcls-4" d="M3 29V3h25v19a5.971 5.971 0 0 1 2 .349V1H1v30h11a7.921 7.921 0 0 1-.817-2z"/></g></g></g></g></g></svg><svg id="manage" viewBox="11 -13 50 50" width="50" height="50" x="300" y="50"><style>.blst0{fill:#7c848e}</style><path class="blst0" d="M36 10c-1.1 0-2 .9-2 2s.9 2 2 2 2-.9 2-2-.9-2-2-2zm0-21C23.3-11 13-.7 13 12.1c0 11.7 8.7 21.4 19.9 22.9l-.2-2.3C22.8 31.1 15 22.4 15 12 15 .4 24.4-9 36-9S57 .3 57 12c0 10.5-7.8 19.2-17.8 20.6l-.2 2.3c11.3-1.6 20-11.1 20-23C59-.7 48.7-11 36-11zM25 12c0 1.1.9 2 2 2s2-.9 2-2-.9-2-2-2-2 .9-2 2zm22 0c0-1.1-.9-2-2-2s-2 .9-2 2 .9 2 2 2 2-.9 2-2z"/></svg><svg id="manage-actived" viewBox="11 -13 50 50" width="50" height="50" x="300" y="100"><style>.bmst0{fill:#00a4ff}</style><path class="bmst0" d="M36 10c-1.1 0-2 .9-2 2s.9 2 2 2 2-.9 2-2-.9-2-2-2zm0-21C23.3-11 13-.7 13 12.1c0 11.7 8.7 21.4 19.9 22.9l-.2-2.3C22.8 31.1 15 22.4 15 12 15 .4 24.4-9 36-9S57 .3 57 12c0 10.5-7.8 19.2-17.8 20.6l-.2 2.3c11.3-1.6 20-11.1 20-23C59-.7 48.7-11 36-11zM25 12c0 1.1.9 2 2 2s2-.9 2-2-.9-2-2-2-2 .9-2 2zm22 0c0-1.1-.9-2-2-2s-2 .9-2 2 .9 2 2 2 2-.9 2-2z"/></svg><svg id="middleware" width="50" height="50" viewBox="266 -11 50 50" x="300" y="150"><style>.st0{opacity:.2;fill:#fff}.st1{enable-background:new}.st2{fill:#0085f6}.st3{fill:url(#SVGID_1_)}.st4{fill:url(#SVGID_2_)}.st5{fill:url(#SVGID_3_)}.st6{fill:#00a4ff}.bnst7{fill:#7c848e}.st8{fill-rule:evenodd;clip-rule:evenodd;fill:#00a4ff}.st9{fill:#2274e5}.st10{fill:url(#SVGID_4_)}.st11{fill:#00a4ff}</style><path class="bnst7" d="M313-8h-38l-6 6v32l6 6h32l6-6V0h-2v29l-5 5h-30l-5-5V-1l5-5h37z"/><path class="bnst7" d="M302 12V3h-22v9h6l-2 2v2h16v5h-2v2h4v-9h-6l2-2v-2h-16V5h18v7h2zm-6 0l-2 2h-8l2-2h8z"/><path class="bnst7" d="M293.6 23l2.4 3h2l-4-5h-12v-7h-2v9z"/></svg><svg id="middleware-actived" width="50" height="50" viewBox="324 -11 50 50" x="300" y="200"><style>.st0{opacity:.2;fill:#fff}.st1{enable-background:new}.st2{fill:#0085f6}.st3{fill:url(#SVGID_1_)}.st4{fill:url(#SVGID_2_)}.st5{fill:url(#SVGID_3_)}.st6{fill:#00a4ff}.st7{fill:#757a80}.st8{fill-rule:evenodd;clip-rule:evenodd;fill:#00a4ff}.st9{fill:#2274e5}.st10{fill:url(#SVGID_4_)}.bost11{fill:#00a4ff}</style><path class="bost11" d="M371-8h-38l-6 6v32l6 6h32l6-6V0h-2v29l-5 5h-30l-5-5V-1l5-5h37z"/><path class="bost11" d="M360 12V3h-22v9h6l-2 2v2h16v5h-2v2h4v-9h-6l2-2v-2h-16V5h18v7h2zm-6 0l-2 2h-8l2-2h8z"/><path class="bost11" d="M351.6 23l2.4 3h2l-4-5h-12v-7h-2v9z"/></svg><svg id="mobile" viewBox="11 -13 50 50" width="50" height="50" x="300" y="250"><style>.bpst0{fill:#7c848e}</style><path class="bpst0" d="M33 26h6v-2h-6v2zm19 2v-38H20v44h32v-2H22V-8h28v36h2zM35.8 0c-2.3 0-4.2 1.4-4.9 3.4 0 0 .9.9 1.8 1.6 0-1.7 1.4-3 3.1-3C37.6 2 39 3.3 39 5c1-.5 2-.9 2-.9-.5-2.3-2.6-4.1-5.2-4.1zm7.6 1.7L45 .2C43.2-2.9 39.8-5 35.8-5c-3.7 0-7 1.9-8.8 4.7l1.5 1.5C29.9-1.3 32.7-3 35.8-3c3.4 0 6.3 1.9 7.6 4.7zM35 6v2h2V6h-2z"/></svg><svg id="mobile-actived" viewBox="11 -13 50 50" width="50" height="50" y="300"><style>.bqst0{fill:#00a4ff}</style><path class="bqst0" d="M52 28v-38H20v44h32v-2H22V-8h28v36h2zm-19-2h6v-2h-6v2zM43.4 1.7L45 .2C43.2-2.9 39.8-5 35.8-5c-3.7 0-7 1.9-8.8 4.7l1.5 1.5C29.9-1.3 32.7-3 35.8-3c3.4 0 6.3 1.9 7.6 4.7zM35.8 0c-2.3 0-4.2 1.4-4.9 3.4 0 0 .9.9 1.8 1.6 0-1.7 1.4-3 3.1-3C37.6 2 39 3.3 39 5c1-.5 2-.9 2-.9-.5-2.3-2.6-4.1-5.2-4.1zM35 6v2h2V6h-2z"/></svg><svg id="monitor" viewBox="-1 -1 50 50" width="50" height="50" x="50" y="300"><style>.brst0{fill-rule:evenodd;clip-rule:evenodd;fill:#7c848e}</style><g id="brXMLID_2_"><g id="brXMLID_53_"><path id="brXMLID_54_" class="brst0" d="M3 24C3 16.2 7.2 9.5 13.5 5.8l-1-1.7C5.6 8.1 1 15.5 1 24c0 8.5 4.6 16 11.5 19.9l1-1.7C7.2 38.6 3 31.8 3 24zm26.6-11.7l-1 1.7-4.7 8c-1 .1-1.9.9-1.9 2s.9 2 2 2 2-.9 2-2c0-.4-.1-.8-.3-1.1l4.7-7.9c2.8 2 4.7 5.3 4.7 9 0 6.1-4.9 11-11 11s-11-4.9-11-11c0-4.1 2.2-7.6 5.5-9.5l-1-1.7C13.6 15 11 19.2 11 24c0 7.2 5.8 13 13 13s13-5.8 13-13c0-5.2-3-9.6-7.4-11.7zm5.9-8.2l-1 1.7C40.8 9.5 45 16.2 45 24c0 7.8-4.2 14.5-10.5 18.2l1 1.7C42.4 39.9 47 32.5 47 24c0-8.5-4.6-15.9-11.5-19.9z"/></g></g></svg><svg id="monitor-actived" viewBox="-1 -1 50 50" width="50" height="50" x="100" y="300"><style>.bsst0{fill-rule:evenodd;clip-rule:evenodd;fill:#00a4ff}</style><g id="bsXMLID_2_"><g id="bsXMLID_53_"><path id="bsXMLID_54_" class="bsst0" d="M3 24C3 16.2 7.2 9.5 13.5 5.8l-1-1.7C5.6 8.1 1 15.5 1 24c0 8.5 4.6 16 11.5 19.9l1-1.7C7.2 38.6 3 31.8 3 24zm26.6-11.7l-1 1.7-4.7 8c-1 .1-1.9.9-1.9 2s.9 2 2 2 2-.9 2-2c0-.4-.1-.8-.3-1.1l4.7-7.9c2.8 2 4.7 5.3 4.7 9 0 6.1-4.9 11-11 11s-11-4.9-11-11c0-4.1 2.2-7.6 5.5-9.5l-1-1.7C13.6 15 11 19.2 11 24c0 7.2 5.8 13 13 13s13-5.8 13-13c0-5.2-3-9.6-7.4-11.7zm5.9-8.2l-1 1.7C40.8 9.5 45 16.2 45 24c0 7.8-4.2 14.5-10.5 18.2l1 1.7C42.4 39.9 47 32.5 47 24c0-8.5-4.6-15.9-11.5-19.9z"/></g></g></svg><svg id="network" viewBox="-1 -1 50 50" width="50" height="50" x="150" y="300"><style>.btst0{fill:#7c848e}</style><g id="btXMLID_2_"><g id="btXMLID_71_"><path id="btXMLID_72_" class="btst0" d="M30.9 21.2c.1.9.1 1.9.1 2.8s0 1.9-.1 2.8c.7-.1 1.4-.1 2-.2 0-.9.1-1.7.1-2.6s0-1.7-.1-2.6c-.6-.1-1.3-.1-2-.2zM24 1C11.3 1 1 11.3 1 24s10.3 23 23 23 23-10.3 23-23S36.7 1 24 1zm20.5 18.9c-2.5-2-6.9-3.5-12.1-4.3-.8-5.3-2.3-9.6-4.3-12.1C36 5.2 42.8 12 44.5 19.9zm-41 8.2c2 1.6 5.1 2.9 8.8 3.8-.2-1.3-.2-1-.3-1.9-4.8-1.1-9-4-9-6s3.7-4.4 9-6c.1-.9.2-1 .3-1.9-3.8.9-6.8 2.2-8.8 3.8 1.8-8 8.5-14.7 16.4-16.4C17 7.2 15 15 15 24s2 16.8 4.9 20.5C12 42.8 5.3 36.1 3.5 28.1zm24.6 16.4c2-2.5 3.5-6.8 4.3-12 5.3-.7 9.6-2.2 12.1-4.2-1.9 7.8-8.5 14.5-16.4 16.2zm16.8-20c0 .1-.1.2-.1.2-.9 2.2-5.8 4.4-12.2 5.5 0-.2 0-.5.1-.7-.7.1-1.4.2-2.1.2 0 .3-.1.5-.1.8-2 .3-4.2.5-6.5.5h-3c.2.5.7 1.4 1 2h3c1.8 0 3.6-.1 5.2-.2C29 39.8 26.4 45 24 45c-3.4 0-7-10-7-21s3.6-21 7-21c2.5 0 5 5.3 6.3 12.3-2-.2-4.1-.3-6.3-.3h-2c-.3.4-.6 1.2-1 2h3c2.3 0 4.5.2 6.6.4 0 .3.1.5.1.8.7.1 1.4.2 2.1.2 0-.2 0-.5-.1-.7 6.3 1.1 11.2 3.3 12.2 5.5 0 .1.1.1.1.2v.1c0 .1.1.3.1.4s0 .3-.1.4-.1.2-.1.2z"/></g></g></svg><svg id="network-actived" viewBox="-1 -1 50 50" width="50" height="50" x="200" y="300"><style>.bust0{fill-rule:evenodd;clip-rule:evenodd;fill:#00a4ff}</style><g id="buXMLID_2_"><g id="buXMLID_71_"><path id="buXMLID_72_" class="bust0" d="M30.9 21.2c.1.9.1 1.9.1 2.8 0 .9 0 1.9-.1 2.8.7-.1 1.4-.1 2-.2 0-.9.1-1.7.1-2.6 0-.9 0-1.7-.1-2.6-.6-.1-1.3-.1-2-.2zM24 1C11.3 1 1 11.3 1 24s10.3 23 23 23 23-10.3 23-23S36.7 1 24 1zm20.5 18.9c-2.5-2-6.9-3.5-12.1-4.3-.8-5.3-2.3-9.6-4.3-12.1C36 5.2 42.8 12 44.5 19.9zm-41 8.2c2 1.6 5.1 2.9 8.8 3.8-.2-1.3-.2-1-.3-1.9-4.8-1.1-9-4-9-6s3.7-4.4 9-6c.1-.9.2-1 .3-1.9-3.8.9-6.8 2.2-8.8 3.8 1.8-8 8.5-14.7 16.4-16.4C17 7.2 15 15 15 24s2 16.8 4.9 20.5C12 42.8 5.3 36.1 3.5 28.1zm24.6 16.4c2-2.5 3.5-6.8 4.3-12 5.3-.7 9.6-2.2 12.1-4.2-1.9 7.8-8.5 14.5-16.4 16.2zm16.8-20c0 .1-.1.2-.1.2-.9 2.2-5.8 4.4-12.2 5.5 0-.2 0-.5.1-.7-.7.1-1.4.2-2.1.2 0 .3-.1.5-.1.8-2 .3-4.2.5-6.5.5h-3c.2.5.7 1.4 1 2h3c1.8 0 3.6-.1 5.2-.2C29 39.8 26.4 45 24 45c-3.4 0-7-10-7-21s3.6-21 7-21c2.5 0 5 5.3 6.3 12.3-2-.2-4.1-.3-6.3-.3h-2c-.3.4-.6 1.2-1 2h3c2.3 0 4.5.2 6.6.4 0 .3.1.5.1.8.7.1 1.4.2 2.1.2 0-.2 0-.5-.1-.7 6.3 1.1 11.2 3.3 12.2 5.5 0 .1.1.1.1.2v.1c0 .1.1.3.1.4 0 .1 0 .3-.1.4-.1.1-.1.2-.1.2z"/></g></g></svg><svg id="pic-service" viewBox="-1 -1 50 50" width="50" height="50" x="250" y="300"><style>.bvst0{fill:#7c848e}</style><g id="bvXMLID_3_"><g id="bvXMLID_77_"><path id="bvXMLID_78_" class="bvst0" d="M7.8 8H42v24h2V6H7.8C7.4 4.8 6.3 4 5 4 3.3 4 2 5.3 2 7s1.3 3 3 3c1.3 0 2.4-.8 2.8-2zM43 38c-1.3 0-2.4.8-2.8 2H6V16H4v26h36.2c.4 1.2 1.5 2 2.8 2 1.7 0 3-1.3 3-3s-1.3-3-3-3zM32 16v4h4v-4h-4zm-4.1 12.7l-7-8.7L8.1 36h2.6l10.2-12.8 5.4 6.8 1.6 2 1.6-2 1.4-1.8 6.2 7.8h2.6l-8.8-11-3 3.7z"/></g></g></svg><svg id="pic-service-actived" viewBox="-1 -1 50 50" width="50" height="50" x="300" y="300"><style>.bwst0{fill:#00a4ff}</style><g id="bwXMLID_3_"><g id="bwXMLID_84_"><path id="bwXMLID_85_" class="bwst0" d="M7.8 8H42v24h2V6H7.8C7.4 4.8 6.3 4 5 4 3.3 4 2 5.3 2 7s1.3 3 3 3c1.3 0 2.4-.8 2.8-2zM43 38c-1.3 0-2.4.8-2.8 2H6V16H4v26h36.2c.4 1.2 1.5 2 2.8 2 1.7 0 3-1.3 3-3s-1.3-3-3-3zM32 16v4h4v-4h-4zm-4.1 12.7l-7-8.7L8.1 36h2.6l10.2-12.8 5.4 6.8 1.6 2 1.6-2 1.4-1.8 6.2 7.8h2.6l-8.8-11-3 3.7z"/></g></g></svg><svg width="50" height="50" viewBox="-1 -1 50 50" id="qidian" x="350"><title>ic_enterprise application_normal</title><g fill="#7C848E"><path d="M40 26l8 5-24 15L0 31l8-5 1.887 1.18L3.774 31 24 43.642 44.226 31l-6.113-3.82L40 26z"/><path d="M44.226 17L24 4.358 3.774 17 24 29.642 44.226 17zM24 2l24 15-24 15L0 17 24 2z"/></g></svg><svg width="50" height="50" viewBox="-1 -1 50 50" id="qidian-actived" x="350" y="50"><title>ic_enterprise application_hover</title><g fill="#00A7FF"><path d="M40 26l8 5-24 15L0 31l8-5 1.887 1.18L3.774 31 24 43.642 44.226 31l-6.113-3.82L40 26z"/><path d="M44.226 17L24 4.358 3.774 17 24 29.642 44.226 17zM24 2l24 15-24 15L0 17 24 2z"/></g></svg><svg id="quanta" width="50" height="50" viewBox="366 927 50 50" x="350" y="100"><style>.st0,.st1{opacity:.2;fill:#2277da}.st1{fill:#fff}.st2{enable-background:new}.st3{fill:#0085f6}.st4{fill:url(#SVGID_1_)}.st5{fill:url(#SVGID_2_)}.st6{fill:#2277da}.bzst7{fill:#7c848e}.st8{fill-rule:evenodd;clip-rule:evenodd;fill:#2277da}.st9{fill:#2274e5}.st10{fill:url(#SVGID_3_)}.st11{fill:#00a4ff}.st12,.st13{fill-rule:evenodd;clip-rule:evenodd;fill:url(#SVGID_4_)}.st13{fill:url(#SVGID_5_)}.st14{fill:url(#SVGID_6_)}.st15{fill:url(#SVGID_7_)}.st16{fill:url(#SVGID_8_)}.st17{fill:url(#SVGID_9_)}.st18{fill:url(#SVGID_10_)}.st19{fill:url(#SVGID_11_)}.st20{fill:url(#SVGID_12_)}.st21{fill:url(#SVGID_13_)}.st22{fill:url(#SVGID_14_)}.st23{fill:url(#SVGID_15_)}.st24{fill:url(#SVGID_16_)}.st25{fill:url(#SVGID_17_)}.st26{fill:url(#SVGID_18_)}.st27{fill:url(#SVGID_19_)}.st28{fill:url(#SVGID_20_)}.st29{fill:url(#SVGID_21_)}.st30{fill:url(#SVGID_22_)}.st31{fill:url(#SVGID_23_)}.st32{fill:url(#SVGID_24_)}.st33{fill:url(#SVGID_25_)}.st34{fill:url(#SVGID_26_)}.st35{fill:url(#SVGID_27_)}.st36{fill:url(#SVGID_28_)}.st37{fill:url(#SVGID_29_)}.st38{fill:url(#SVGID_30_)}.st39{fill:url(#SVGID_31_)}.st40{fill:url(#SVGID_32_)}.st41{fill:url(#SVGID_33_)}.st42{fill:url(#SVGID_34_)}.st42,.st43,.st44{fill-rule:evenodd;clip-rule:evenodd}.st43{fill:url(#SVGID_35_)}.st44{fill:url(#SVGID_36_)}.st45{fill:url(#SVGID_37_)}.st46{fill:url(#SVGID_38_)}.st47{fill:url(#SVGID_39_)}.st48{fill:url(#SVGID_40_)}.st49{fill:url(#SVGID_41_)}.st49,.st50,.st51{fill-rule:evenodd;clip-rule:evenodd}.st50{fill:url(#SVGID_42_)}.st51{fill:url(#SVGID_43_)}.st52{fill:url(#SVGID_44_)}.st53{fill:url(#SVGID_45_)}.st54{fill:url(#SVGID_46_)}.st55{fill:url(#SVGID_47_)}.st56{fill-rule:evenodd;clip-rule:evenodd;fill:url(#SVGID_48_)}.st57{fill:#020202}.st58,.st59{fill-rule:evenodd;clip-rule:evenodd;fill:url(#SVGID_49_)}.st59{fill:url(#SVGID_50_)}.st60{fill:url(#SVGID_51_)}.st61{fill:url(#SVGID_52_)}.st62{fill:url(#SVGID_53_)}.st63{fill:url(#SVGID_54_)}.st64{fill-rule:evenodd;clip-rule:evenodd;fill:url(#SVGID_55_)}.st65{fill:#0080ff}.st66{fill-rule:evenodd;clip-rule:evenodd;fill:url(#SVGID_56_)}.st67{fill:none}.bzst68,.st69{fill-rule:evenodd;clip-rule:evenodd;fill:#757a80}.st69{fill:#00a4ff}</style><path class="bzst7" d="M383.9 941.9c3.1 0 7.5 2.3 11.1 6 2.6 2.6 4.6 5.7 5.5 8.4.7 2.3.6 4.1-.3 5-.5.5-1.3.7-2.3.7-3.1 0-7.5-2.3-11.1-6-2.6-2.6-4.6-5.7-5.5-8.4-.7-2.3-.6-4.1.3-5 .6-.4 1.3-.7 2.3-.7m0-2c-1.5 0-2.8.4-3.7 1.3-3 3-.7 10.3 5.2 16.2 4.2 4.2 9 6.6 12.6 6.6 1.5 0 2.8-.4 3.7-1.3 3-3 .7-10.3-5.2-16.2-4.2-4.2-9-6.6-12.6-6.6z"/><path class="bzst7" d="M398.1 941.9c1 0 1.8.3 2.3.7.9.9 1 2.7.3 5-.9 2.7-2.9 5.8-5.5 8.4-3.6 3.6-8 6-11.1 6-1 0-1.8-.3-2.3-.7-.9-.9-1-2.7-.3-5 .9-2.7 2.9-5.8 5.5-8.4 3.5-3.6 7.9-6 11.1-6m0-2c-3.6 0-8.4 2.4-12.6 6.6-5.9 5.9-8.3 13.2-5.2 16.2.9.9 2.2 1.3 3.7 1.3 3.6 0 8.4-2.4 12.6-6.6 5.9-5.9 8.3-13.2 5.2-16.2-1-.8-2.2-1.3-3.7-1.3z"/><circle class="bzst68" cx="379.5" cy="932.5" r="2.5"/><circle class="bzst68" cx="402.5" cy="971.5" r="2.5"/><path class="bzst7" d="M403 931.2v-.2h-19v2h18l10.7 19-10.7 19c.6.2.6 1.6 1 2l12-21-12-20.8zm-5 39.8h-18l-10.7-19 10.7-19c-.6-.2-1.6.4-2 0l-11 19 12 21h19v-2z"/><circle class="bzst7" cx="391" cy="952" r="2"/></svg><svg width="50" height="50" viewBox="366 927 50 50" id="quanta-#00a4ff" x="300"><style>.st0,.st1{opacity:.2;fill:#00a4ff}.st2{enable-background:new}.cast7,.st3,.st4,.st5,.st6{fill:#00a4ff}.st8{fill-rule:evenodd;clip-rule:evenodd}.st10,.st11,.st8,.st9{fill:#00a4ff}.st12,.st13{fill-rule:evenodd;clip-rule:evenodd}.st12,.st13,.st14,.st15,.st16,.st17,.st18,.st19,.st20,.st21,.st22,.st23,.st24,.st25,.st26,.st27,.st28,.st29,.st30,.st31,.st32,.st33,.st34,.st35,.st36,.st37,.st38,.st39,.st40,.st41{fill:#00a4ff}.st42,.st43,.st44{fill-rule:evenodd;clip-rule:evenodd;fill:#00a4ff}.st45,.st46,.st47,.st48{fill:#00a4ff}.st49,.st50,.st51{fill-rule:evenodd;clip-rule:evenodd;fill:#00a4ff}.st52,.st53,.st54,.st55{fill:#00a4ff}.st56{fill-rule:evenodd;clip-rule:evenodd}.st56,.st57{fill:#00a4ff}.st58,.st59{fill-rule:evenodd;clip-rule:evenodd}.st58,.st59,.st60,.st61,.st62,.st63{fill:#00a4ff}.st64{fill-rule:evenodd;clip-rule:evenodd}.st64,.st65{fill:#00a4ff}.st66{fill-rule:evenodd;clip-rule:evenodd}.cast68,.st66,.st67,.st69{fill:#00a4ff}.cast68,.st69{fill-rule:evenodd;clip-rule:evenodd}</style><path class="cast7" d="M383.9 941.9c3.1 0 7.5 2.3 11.1 6 2.6 2.6 4.6 5.7 5.5 8.4.7 2.3.6 4.1-.3 5-.5.5-1.3.7-2.3.7-3.1 0-7.5-2.3-11.1-6-2.6-2.6-4.6-5.7-5.5-8.4-.7-2.3-.6-4.1.3-5 .6-.4 1.3-.7 2.3-.7m0-2c-1.5 0-2.8.4-3.7 1.3-3 3-.7 10.3 5.2 16.2 4.2 4.2 9 6.6 12.6 6.6 1.5 0 2.8-.4 3.7-1.3 3-3 .7-10.3-5.2-16.2-4.2-4.2-9-6.6-12.6-6.6z"/><path class="cast7" d="M398.1 941.9c1 0 1.8.3 2.3.7.9.9 1 2.7.3 5-.9 2.7-2.9 5.8-5.5 8.4-3.6 3.6-8 6-11.1 6-1 0-1.8-.3-2.3-.7-.9-.9-1-2.7-.3-5 .9-2.7 2.9-5.8 5.5-8.4 3.5-3.6 7.9-6 11.1-6m0-2c-3.6 0-8.4 2.4-12.6 6.6-5.9 5.9-8.3 13.2-5.2 16.2.9.9 2.2 1.3 3.7 1.3 3.6 0 8.4-2.4 12.6-6.6 5.9-5.9 8.3-13.2 5.2-16.2-1-.8-2.2-1.3-3.7-1.3z"/><circle class="cast68" cx="379.5" cy="932.5" r="2.5"/><circle class="cast68" cx="402.5" cy="971.5" r="2.5"/><path class="cast7" d="M403 931.2v-.2h-19v2h18l10.7 19-10.7 19c.6.2.6 1.6 1 2l12-21-12-20.8zm-5 39.8h-18l-10.7-19 10.7-19c-.6-.2-1.6.4-2 0l-11 19 12 21h19v-2z"/><circle class="cast7" cx="391" cy="952" r="2"/></svg><svg version="1" width="50" height="50" viewBox="-1 -1 50 50" id="quyu" x="150" y="250"><path fill="#7C848E" d="M37.1 31c0 1.1-.9 2-2 2-.5 0-.9-.2-1.3-.5l-7.7 4.3v.1c0 1.1-.9 2-2 2s-2-.9-2-2v-.1l-7.7-4.4c-.4.4-.8.6-1.3.6-1.1 0-2-.9-2-2 0-.7.4-1.4 1-1.7v-9.6c-.6-.3-1-1-1-1.7 0-1.1.9-2 2-2 .5 0 .9.2 1.3.5l7.7-4.3v-.1c0-1.1.9-2 2-2s2 .9 2 2v.1l7.7 4.4c.3-.3.8-.5 1.3-.5 1.1 0 2 .9 2 2 0 .7-.4 1.4-1 1.7v9.5c.6.3 1 1 1 1.7zm-4-.2l-8-4.7v9.2s.1 0 .1.1l7.9-4.6zm-18 0l7.9 4.5s.1 0 .1-.1V26L15 30.5c0 .1.1.2.1.3zm-1-11v9l7.9-4.4-7.9-4.6zm1.1-1.7l7.9 4.5v-8.9s-.1 0-.1-.1l-7.8 4.5zm10-4.4s-.1 0-.1.1v8.9l7.9-4.4-7.8-4.6zm.8 10.6l8.1 4.7v-9.2L26 24.3zM24.1 3c-11.6 0-21 9.4-21 21s9.4 21 21 21c10.6 0 19.3-7.8 20.8-18h2c-1.5 11.3-11.1 20-22.8 20-12.7 0-23-10.3-23-23s10.3-23 23-23c11.7 0 21.3 8.7 22.8 20h-2C43.4 10.8 34.7 3 24.1 3z"/></svg><svg version="1" width="50" height="50" viewBox="-1 -1 50 50" id="quyu-actived" x="50" y="250"><path fill="#00A2FF" d="M37.1 31c0 1.1-.9 2-2 2-.5 0-.9-.2-1.3-.5l-7.7 4.3v.1c0 1.1-.9 2-2 2s-2-.9-2-2v-.1l-7.7-4.4c-.4.4-.8.6-1.3.6-1.1 0-2-.9-2-2 0-.7.4-1.4 1-1.7v-9.6c-.6-.3-1-1-1-1.7 0-1.1.9-2 2-2 .5 0 .9.2 1.3.5l7.7-4.3v-.1c0-1.1.9-2 2-2s2 .9 2 2v.1l7.7 4.4c.3-.3.8-.5 1.3-.5 1.1 0 2 .9 2 2 0 .7-.4 1.4-1 1.7v9.5c.6.3 1 1 1 1.7zm-4-.2l-8-4.7v9.2s.1 0 .1.1l7.9-4.6zm-18 0l7.9 4.5s.1 0 .1-.1V26L15 30.5c0 .1.1.2.1.3zm-1-11v9l7.9-4.4-7.9-4.6zm1.1-1.7l7.9 4.5v-8.9s-.1 0-.1-.1l-7.8 4.5zm10-4.4s-.1 0-.1.1v8.9l7.9-4.4-7.8-4.6zm.8 10.6l8.1 4.7v-9.2L26 24.3zM24.1 3c-11.6 0-21 9.4-21 21s9.4 21 21 21c10.6 0 19.3-7.8 20.8-18h2c-1.5 11.3-11.1 20-22.8 20-12.7 0-23-10.3-23-23s10.3-23 23-23c11.7 0 21.3 8.7 22.8 20h-2C43.4 10.8 34.7 3 24.1 3z"/></svg><svg id="security" viewBox="-1 -1 50 50" width="50" height="50" y="250"><style>.cdst0{fill:#7c848e}</style><g id="cdXMLID_2_"><g id="cdXMLID_77_"><path id="cdXMLID_78_" class="cdst0" d="M5 2v23.9C5 38 24 46 24 46s19-8 19-20V2H5zm36 24c0 9.2-13.6 16.2-17 17.8-3.4-1.6-17-8.6-17-17.9V4h34v22zm-9-7h-1v-2c0-4-3.1-7-7-7s-7 3-7 7v2h-1v12h16V19zm-13-2c0-3 2.2-5 5-5s5 2 5 5v2H19v-2zm11 12H18v-8h12v8z"/></g></g></svg><svg id="security-actived" viewBox="-1 -1 50 50" width="50" height="50" x="250" y="200"><style>.cest0{fill:#00a4ff}</style><g id="ceXMLID_2_"><g id="ceXMLID_77_"><path id="ceXMLID_78_" class="cest0" d="M5 2v23.9C5 38 24 46 24 46s19-8 19-20V2H5zm36 24c0 9.2-13.6 16.2-17 17.8-3.4-1.6-17-8.6-17-17.9V4h34v22zm-9-7h-1v-2c0-4-3.1-7-7-7s-7 3-7 7v2h-1v12h16V19zm-13-2c0-3 2.2-5 5-5s5 2 5 5v2H19v-2zm11 12H18v-8h12v8z"/></g></g></svg><svg id="storage" viewBox="-1 -1 50 50" width="50" height="50" x="250" y="150"><style>.cfst0{fill:#7c848e}</style><path class="cfst0" d="M13 18v12l11 6 11-6V18l-11-6-11 6zm10 15.4L15 29v-8l8 4.4v8zM33 29l-8 4.4v-8l8-4.4v8zm-9-5l-9-5 9-5 9 5-9 5zm20-5.5V35L24 46 4 35V13L24 2l20 11 1.7-1.2L24 0 2 12v24l22 12 22-12V17.5l-2 1z"/></svg><svg id="storage-actived" viewBox="-1 -1 50 50" width="50" height="50" x="150" y="100"><style>.cgst0{fill:#00a4ff}</style><path class="cgst0" d="M44 18.5V35L24 46 4 35V13L24 2l20 11 1.7-1.2L24 0 2 12v24l22 12 22-12V17.5l-2 1zM13 18v12l11 6 11-6V18l-11-6-11 6zm10 15.4L15 29v-8l8 4.4v8zM33 29l-8 4.4v-8l8-4.4v8zm-9-5l-9-5 9-5 9 5-9 5z"/></svg><svg width="13" height="13" viewBox="-1 -1 13 13" id="tips-close" x="384" y="150"><title>Group 2</title><g fill="#627C8B" fill-rule="evenodd"><path d="M5 0h2v12H5z" transform="rotate(45 6.364 5.121)"/><path d="M12 5v2H0V5z" transform="rotate(45 6.364 5.121)"/></g></svg><svg id="video" viewBox="-1 -1 50 50" width="50" height="50" y="100"><style>.cist0{fill:#7c848e}</style><g id="ciXMLID_2_"><g id="ciXMLID_61_"><path id="ciXMLID_62_" class="cist0" d="M39 20.2V20c0-8.3-6.7-15-15-15S9 11.7 9 20v.2c-5.1.9-9 5.4-9 10.8 0 6.1 4.9 11 11 11h26c6.1 0 11-4.9 11-11 0-5.3-3.9-9.8-9-10.8zm-2 19.9H11c-5 0-9-4-9-9s4-9 9-9h.2c-.1-.7-.2-1.3-.2-2 0-7.2 5.8-13 13-13s13 5.8 13 13c0 .7-.1 1.4-.2 2h.2c5 0 9 4 9 9 0 4.9-4 9-9 9zm-6.4-14.9l-11-6.3c-.2-.1-.3-.1-.5-.1-.5 0-1 .4-1 1v12.6c0 .6.5 1 1 1 .2 0 .4 0 .5-.1l11-6.3c.6-.5.6-1.4 0-1.8zM20 30.6v-9.1l8 4.6-8 4.5z"/></g></g></svg><svg id="video-actived" viewBox="-1 -1 50 50" width="50" height="50" x="100" y="50"><style>.cjst0{fill:#00a4ff}</style><g id="cjXMLID_2_"><g id="cjXMLID_61_"><path id="cjXMLID_62_" class="cjst0" d="M39 20.2V20c0-8.3-6.7-15-15-15S9 11.7 9 20v.2c-5.1.9-9 5.4-9 10.8 0 6.1 4.9 11 11 11h26c6.1 0 11-4.9 11-11 0-5.3-3.9-9.8-9-10.8zm-2 19.9H11c-5 0-9-4-9-9s4-9 9-9h.2c-.1-.7-.2-1.3-.2-2 0-7.2 5.8-13 13-13s13 5.8 13 13c0 .7-.1 1.4-.2 2h.2c5 0 9 4 9 9 0 4.9-4 9-9 9zm-6.4-14.9l-11-6.3c-.2-.1-.3-.1-.5-.1-.5 0-1 .4-1 1v12.6c0 .6.5 1 1 1 .2 0 .4 0 .5-.1l11-6.3c.6-.5.6-1.4 0-1.8zM20 30.6v-9.1l8 4.6-8 4.5z"/></g></g></svg><svg id="voice-service" viewBox="-1 -1 50 50" width="50" height="50" x="100"><style>.ckst0{fill:#7c848e}</style><g id="ckXMLID_2_"><g id="ckXMLID_83_"><path id="ckXMLID_84_" class="ckst0" d="M7.8 8H42v24h2V6H7.8C7.4 4.8 6.3 4 5 4 3.3 4 2 5.3 2 7s1.3 3 3 3c1.3 0 2.4-.8 2.8-2zM43 38c-1.3 0-2.4.8-2.8 2H6V16H4v26h36.2c.4 1.2 1.5 2 2.8 2 1.7 0 3-1.3 3-3s-1.3-3-3-3zm-7-11v-6h-2v6h2zm-5 3V18h-2v5h-3v-9h-2v9h-3v-5h-2v5h-3v-2h-2v6h2v-2h3v5h2v-5h3v9h2v-9h3v5h2z"/></g></g></svg><svg id="voice-service-actived" viewBox="-1 -1 50 50" width="50" height="50" x="50"><style>.clst0{fill:#00a4ff}</style><g id="clXMLID_2_"><g id="clXMLID_61_"><path id="clXMLID_62_" class="clst0" d="M7.8 8H42v24h2V6H7.8C7.4 4.8 6.3 4 5 4 3.3 4 2 5.3 2 7s1.3 3 3 3c1.3 0 2.4-.8 2.8-2zM43 38c-1.3 0-2.4.8-2.8 2H6V16H4v26h36.2c.4 1.2 1.5 2 2.8 2 1.7 0 3-1.3 3-3s-1.3-3-3-3zm-7-11v-6h-2v6h2zm-5 3V18h-2v5h-3v-9h-2v9h-3v-5h-2v5h-3v-2h-2v6h2v-2h3v5h2v-5h3v9h2v-9h3v5h2z"/></g></g></svg></svg>